<svg aria-hidden="true" style="position: absolute; width: 0; height: 0; overflow: hidden;" version="1.1" xmlns="http://www.w3.org/2000/svg" xmlns:xlink="http://www.w3.org/1999/xlink">
  <defs>

<symbol id="icon-litvihenkoo" viewBox="0 0 71 32">
<path fill="#f36acb" style="fill: var(--color1, #f36acb)" d="M0.768 18.772v-6.048h0.883v2.736l2.544-2.736h1.094l-2.496 2.678 2.688 3.37h-1.114l-2.208-2.765-0.509 0.547v2.218h-0.883zM10.031 16.468c0 0.378-0.058 0.717-0.173 1.018-0.115 0.294-0.275 0.544-0.48 0.749-0.198 0.205-0.432 0.362-0.701 0.47-0.269 0.102-0.56 0.154-0.874 0.154s-0.605-0.048-0.874-0.144c-0.262-0.102-0.493-0.25-0.691-0.442-0.192-0.198-0.346-0.438-0.461-0.72-0.109-0.288-0.163-0.618-0.163-0.989 0-0.378 0.058-0.714 0.173-1.008s0.272-0.541 0.47-0.739c0.205-0.205 0.442-0.358 0.71-0.461 0.269-0.109 0.56-0.163 0.874-0.163s0.602 0.048 0.864 0.144c0.269 0.096 0.499 0.24 0.691 0.432 0.198 0.192 0.352 0.432 0.461 0.72 0.115 0.282 0.173 0.608 0.173 0.979zM9.148 16.516c0-0.301-0.038-0.557-0.115-0.768s-0.179-0.384-0.307-0.518c-0.122-0.134-0.262-0.23-0.422-0.288-0.16-0.064-0.323-0.096-0.49-0.096s-0.33 0.026-0.49 0.077c-0.16 0.051-0.301 0.141-0.422 0.269s-0.221 0.301-0.298 0.518c-0.070 0.211-0.106 0.48-0.106 0.806 0 0.301 0.038 0.56 0.115 0.778 0.077 0.211 0.176 0.384 0.298 0.518 0.128 0.134 0.272 0.234 0.432 0.298s0.323 0.096 0.49 0.096c0.166 0 0.33-0.026 0.49-0.077 0.16-0.058 0.301-0.15 0.422-0.278 0.122-0.134 0.218-0.307 0.288-0.518 0.077-0.218 0.115-0.49 0.115-0.816zM11.097 18.772v-6.816h0.826v6.816h-0.826zM13.406 18.772v-4.512h0.845v4.512h-0.845zM13.828 13.099c-0.147 0-0.275-0.048-0.384-0.144-0.102-0.102-0.154-0.227-0.154-0.374s0.051-0.272 0.154-0.374c0.109-0.102 0.237-0.154 0.384-0.154 0.141 0 0.266 0.051 0.374 0.154s0.163 0.227 0.163 0.374c0 0.147-0.054 0.272-0.163 0.374-0.109 0.096-0.234 0.144-0.374 0.144zM19.8 16.516c0 0.358-0.054 0.682-0.163 0.97s-0.256 0.534-0.442 0.739c-0.186 0.205-0.403 0.362-0.653 0.47s-0.515 0.163-0.797 0.163c-0.294 0-0.554-0.042-0.778-0.125-0.218-0.083-0.422-0.211-0.614-0.384h-0.019l-0.086 0.422h-0.605v-6.816h0.835v2.87c0.205-0.218 0.429-0.378 0.672-0.48 0.25-0.102 0.509-0.154 0.778-0.154 0.576 0 1.030 0.205 1.363 0.614 0.339 0.41 0.509 0.979 0.509 1.709zM18.917 16.526c0-0.499-0.106-0.896-0.317-1.19-0.211-0.301-0.509-0.451-0.893-0.451-0.243 0-0.464 0.054-0.662 0.163s-0.387 0.262-0.566 0.461v2.189c0.134 0.154 0.285 0.278 0.451 0.374 0.173 0.090 0.371 0.134 0.595 0.134 0.179 0 0.352-0.032 0.518-0.096 0.173-0.064 0.323-0.163 0.451-0.298 0.128-0.141 0.23-0.317 0.307-0.528s0.115-0.464 0.115-0.758zM20.799 18.772v-4.512h0.634l0.144 0.902c0.109-0.288 0.288-0.522 0.538-0.701s0.538-0.269 0.864-0.269c0.166 0 0.304 0.013 0.413 0.038s0.208 0.058 0.298 0.096l-0.163 0.739c-0.077-0.038-0.163-0.070-0.259-0.096-0.090-0.026-0.198-0.038-0.326-0.038-0.186 0-0.358 0.032-0.518 0.096-0.154 0.064-0.291 0.16-0.413 0.288-0.115 0.128-0.208 0.288-0.278 0.48-0.064 0.186-0.096 0.4-0.096 0.643v2.333h-0.835zM24.478 18.772v-4.512h0.845v4.512h-0.845zM24.9 13.099c-0.147 0-0.275-0.048-0.384-0.144-0.102-0.102-0.154-0.227-0.154-0.374s0.051-0.272 0.154-0.374c0.109-0.102 0.237-0.154 0.384-0.154 0.141 0 0.266 0.051 0.374 0.154s0.163 0.227 0.163 0.374c0 0.147-0.054 0.272-0.163 0.374-0.109 0.096-0.234 0.144-0.374 0.144zM30.648 12.638c0.294 0 0.579 0.026 0.854 0.077 0.275 0.045 0.547 0.131 0.816 0.259l-0.211 0.73c-0.275-0.128-0.525-0.218-0.749-0.269-0.218-0.058-0.442-0.086-0.672-0.086-0.365 0-0.653 0.080-0.864 0.24s-0.317 0.384-0.317 0.672c0 0.243 0.077 0.438 0.23 0.586 0.16 0.147 0.419 0.275 0.778 0.384l0.605 0.192c0.55 0.173 0.938 0.41 1.162 0.71 0.23 0.294 0.346 0.627 0.346 0.998 0 0.262-0.054 0.502-0.163 0.72-0.102 0.211-0.25 0.394-0.442 0.547-0.186 0.147-0.406 0.262-0.662 0.346-0.256 0.077-0.538 0.115-0.845 0.115s-0.621-0.029-0.941-0.086c-0.314-0.051-0.627-0.15-0.941-0.298l0.211-0.72c0.275 0.134 0.544 0.234 0.806 0.298s0.538 0.096 0.826 0.096c0.346 0 0.64-0.080 0.883-0.24s0.365-0.397 0.365-0.71c0-0.115-0.019-0.221-0.058-0.317-0.032-0.102-0.093-0.198-0.182-0.288-0.083-0.090-0.198-0.173-0.346-0.25s-0.333-0.15-0.557-0.221l-0.605-0.192c-0.442-0.141-0.781-0.333-1.018-0.576s-0.355-0.573-0.355-0.989c0-0.531 0.173-0.95 0.518-1.258 0.352-0.314 0.861-0.47 1.526-0.47zM36.005 14.894h-1.325v2.621c0 0.224 0.054 0.374 0.163 0.451 0.115 0.077 0.262 0.115 0.442 0.115 0.128 0 0.269-0.013 0.422-0.038 0.154-0.032 0.288-0.067 0.403-0.106l0.134 0.643c-0.128 0.051-0.291 0.096-0.49 0.134s-0.406 0.058-0.624 0.058c-0.448 0-0.774-0.096-0.979-0.288-0.205-0.198-0.307-0.483-0.307-0.854v-2.736h-0.672v-0.634h0.672v-1.44h0.835v1.44h1.325v0.634zM40.155 14.26h0.845v4.512h-0.662l-0.115-0.566h-0.038c-0.166 0.186-0.374 0.342-0.624 0.47-0.243 0.122-0.528 0.182-0.854 0.182-0.467 0-0.848-0.131-1.142-0.394-0.288-0.269-0.432-0.672-0.432-1.21v-2.995h0.845v2.89c0 0.192 0.022 0.355 0.067 0.49 0.051 0.134 0.115 0.243 0.192 0.326 0.083 0.077 0.179 0.134 0.288 0.173 0.109 0.032 0.227 0.048 0.355 0.048 0.256 0 0.486-0.054 0.691-0.163s0.4-0.259 0.585-0.451v-3.312zM45.301 11.956h0.845v6.816h-0.71l-0.106-0.499h-0.029c-0.198 0.205-0.4 0.355-0.605 0.451-0.198 0.090-0.451 0.134-0.758 0.134-0.243 0-0.48-0.048-0.71-0.144-0.224-0.096-0.426-0.24-0.605-0.432s-0.323-0.432-0.432-0.72c-0.109-0.294-0.163-0.64-0.163-1.037 0-0.352 0.045-0.672 0.134-0.96 0.096-0.288 0.23-0.534 0.403-0.739s0.384-0.362 0.634-0.47c0.25-0.109 0.534-0.163 0.854-0.163 0.237 0 0.461 0.038 0.672 0.115 0.218 0.070 0.41 0.179 0.576 0.326v-2.678zM45.301 15.345c-0.301-0.339-0.656-0.509-1.066-0.509-0.173 0-0.342 0.032-0.509 0.096-0.16 0.058-0.304 0.154-0.432 0.288-0.122 0.134-0.221 0.307-0.298 0.518s-0.115 0.464-0.115 0.758c0 0.307 0.035 0.57 0.106 0.787 0.070 0.211 0.163 0.387 0.278 0.528 0.122 0.134 0.256 0.234 0.403 0.298 0.154 0.064 0.307 0.096 0.461 0.096 0.48 0 0.87-0.208 1.171-0.624v-2.237zM47.587 18.772v-4.512h0.845v4.512h-0.845zM48.010 13.099c-0.147 0-0.275-0.048-0.384-0.144-0.102-0.102-0.154-0.227-0.154-0.374s0.051-0.272 0.154-0.374c0.109-0.102 0.237-0.154 0.384-0.154 0.141 0 0.266 0.051 0.374 0.154s0.163 0.227 0.163 0.374c0 0.147-0.054 0.272-0.163 0.374-0.109 0.096-0.234 0.144-0.374 0.144zM53.953 16.468c0 0.378-0.058 0.717-0.173 1.018-0.115 0.294-0.275 0.544-0.48 0.749-0.198 0.205-0.432 0.362-0.701 0.47-0.269 0.102-0.56 0.154-0.874 0.154s-0.605-0.048-0.874-0.144c-0.262-0.102-0.493-0.25-0.691-0.442-0.192-0.198-0.346-0.438-0.461-0.72-0.109-0.288-0.163-0.618-0.163-0.989 0-0.378 0.058-0.714 0.173-1.008s0.272-0.541 0.47-0.739c0.205-0.205 0.442-0.358 0.71-0.461 0.269-0.109 0.56-0.163 0.874-0.163s0.602 0.048 0.864 0.144c0.269 0.096 0.499 0.24 0.691 0.432 0.198 0.192 0.352 0.432 0.461 0.72 0.115 0.282 0.173 0.608 0.173 0.979zM53.070 16.516c0-0.301-0.038-0.557-0.115-0.768s-0.179-0.384-0.307-0.518c-0.122-0.134-0.262-0.23-0.422-0.288-0.16-0.064-0.323-0.096-0.49-0.096s-0.33 0.026-0.49 0.077c-0.16 0.051-0.301 0.141-0.422 0.269s-0.221 0.301-0.298 0.518c-0.070 0.211-0.106 0.48-0.106 0.806 0 0.301 0.038 0.56 0.115 0.778 0.077 0.211 0.176 0.384 0.298 0.518 0.128 0.134 0.272 0.234 0.432 0.298s0.323 0.096 0.49 0.096c0.166 0 0.33-0.026 0.49-0.077 0.16-0.058 0.301-0.15 0.422-0.278 0.122-0.134 0.218-0.307 0.288-0.518 0.077-0.218 0.115-0.49 0.115-0.816z"></path>
<path fill="#c2c2c2" style="fill: var(--color2, #c2c2c2)" d="M40.233 10.43l-3.788-5.55 1.394-0.689 3.074 4.504 3.021-1.493 0.714 1.047-4.415 2.182z"></path>
<path fill="#c2c2c2" style="fill: var(--color2, #c2c2c2)" d="M44.142 8.686l-0.995-5.068 1.482-0.211 0.995 5.068-1.482 0.211zM43.749 2.806c-0.272 0.039-0.51-0.008-0.711-0.141s-0.326-0.315-0.372-0.548 0.002-0.439 0.142-0.621c0.14-0.181 0.347-0.291 0.619-0.33s0.509 0.005 0.71 0.131c0.2 0.12 0.322 0.296 0.368 0.529 0.048 0.245 0.003 0.461-0.136 0.649-0.134 0.18-0.34 0.29-0.619 0.33z"></path>
<path fill="#c2c2c2" style="fill: var(--color2, #c2c2c2)" d="M48.274 8.689c-0.604-0.068-1.052-0.272-1.342-0.614-0.289-0.348-0.387-0.825-0.293-1.432l0.693-4.478 1.488 0.167-0.69 4.459c-0.033 0.215-0.002 0.389 0.094 0.522 0.097 0.127 0.244 0.201 0.441 0.223 0.235 0.026 0.445-0.014 0.63-0.122l0.239 1.089c-0.169 0.090-0.366 0.152-0.591 0.185-0.218 0.027-0.441 0.028-0.67 0.002zM46.173 4.458l0.176-1.138 3.558 0.399-0.176 1.138-3.558-0.399z"></path>
<path fill="#c2c2c2" style="fill: var(--color2, #c2c2c2)" d="M50.279 9.195l1.047-5.207 1.376 0.704-0.956 4.453-0.684-0.35 4.23-2.779 1.282 0.656-4.919 3.228-1.376-0.704z"></path>
<path fill="#c2c2c2" style="fill: var(--color2, #c2c2c2)" d="M53.232 10.467l4.275-2.898 1.023 1.093-4.275 2.898-1.024-1.093zM58.615 7.712c-0.188-0.201-0.275-0.409-0.26-0.625s0.119-0.39 0.315-0.523 0.42-0.181 0.67-0.145c0.25 0.036 0.47 0.155 0.658 0.356s0.278 0.408 0.268 0.62c-0.004 0.209-0.104 0.38-0.3 0.512-0.207 0.14-0.438 0.194-0.694 0.161-0.246-0.032-0.466-0.15-0.658-0.356z"></path>
<path fill="#c2c2c2" style="fill: var(--color2, #c2c2c2)" d="M55.446 14.092c-0.196-0.521-0.263-1.015-0.2-1.481 0.069-0.468 0.254-0.872 0.555-1.211 0.304-0.334 0.702-0.568 1.196-0.703 0.5-0.136 0.984-0.143 1.453-0.020 0.477 0.128 0.9 0.365 1.27 0.714 0.376 0.347 0.661 0.781 0.858 1.302 0.192 0.509 0.247 0.983 0.167 1.421-0.074 0.436-0.281 0.8-0.621 1.091l-1.011-0.923c0.187-0.19 0.3-0.396 0.34-0.618 0.041-0.216 0.020-0.435-0.064-0.656-0.090-0.24-0.227-0.44-0.41-0.601s-0.398-0.271-0.645-0.329c-0.244-0.052-0.512-0.039-0.802 0.040s-0.517 0.2-0.68 0.364c-0.161 0.169-0.261 0.365-0.3 0.587s-0.013 0.453 0.077 0.692c0.084 0.222 0.213 0.411 0.388 0.568 0.183 0.161 0.419 0.272 0.707 0.332l-0.202 1.254c-0.469-0.070-0.886-0.264-1.25-0.581-0.358-0.318-0.633-0.732-0.825-1.241z"></path>
<path fill="#c2c2c2" style="fill: var(--color2, #c2c2c2)" d="M60.62 19.215c-0.091 0.399-0.255 0.741-0.49 1.026-0.23 0.292-0.534 0.501-0.91 0.626-0.37 0.127-0.813 0.147-1.331 0.061l-2.917-0.483 0.334-1.46 2.69 0.446c0.41 0.068 0.734 0.028 0.971-0.121 0.236-0.142 0.391-0.376 0.465-0.7 0.053-0.231 0.050-0.448-0.008-0.652-0.053-0.197-0.169-0.365-0.346-0.504-0.179-0.133-0.427-0.226-0.742-0.278l-2.519-0.417 0.334-1.46 7.027 1.164-0.334 1.46-3.343-0.554 0.501-0.257c0.3 0.237 0.502 0.54 0.608 0.907s0.11 0.766 0.011 1.197z"></path>
<path fill="#c2c2c2" style="fill: var(--color2, #c2c2c2)" d="M53.202 21.222c0.418-0.415 0.879-0.712 1.383-0.891 0.5-0.175 0.996-0.231 1.489-0.169 0.498 0.066 0.954 0.251 1.368 0.553 0.419 0.306 0.704 0.659 0.857 1.060 0.153 0.409 0.172 0.826 0.058 1.251-0.109 0.429-0.35 0.828-0.722 1.198-0.359 0.356-0.77 0.612-1.232 0.768-0.461 0.164-0.939 0.21-1.433 0.139-0.488-0.067-0.958-0.265-1.407-0.593-0.047-0.034-0.099-0.076-0.156-0.126-0.052-0.046-0.102-0.090-0.149-0.132l2.978-2.955 0.706 0.515-2.42 2.4 0.2-0.559c0.217 0.159 0.444 0.258 0.682 0.298s0.468 0.025 0.693-0.046c0.229-0.067 0.435-0.191 0.616-0.371s0.297-0.374 0.344-0.582c0.048-0.199 0.029-0.398-0.060-0.595-0.083-0.194-0.236-0.372-0.458-0.534l-0.186-0.136c-0.227-0.166-0.472-0.27-0.734-0.313-0.262-0.034-0.518-0.007-0.77 0.083-0.252 0.098-0.486 0.255-0.704 0.472-0.195 0.194-0.332 0.387-0.41 0.581-0.083 0.198-0.118 0.407-0.106 0.626l-1.264 0.052c-0.049-0.325-0.006-0.658 0.13-0.997 0.141-0.335 0.377-0.668 0.708-0.997z"></path>
<path fill="#c2c2c2" style="fill: var(--color2, #c2c2c2)" d="M51.132 28.048c-0.392 0.121-0.773 0.152-1.144 0.093-0.375-0.051-0.717-0.205-1.028-0.463-0.308-0.251-0.564-0.619-0.77-1.101l-1.158-2.72 1.431-0.441 1.068 2.508c0.163 0.383 0.372 0.638 0.627 0.766 0.249 0.13 0.532 0.146 0.85 0.047 0.226-0.070 0.411-0.18 0.554-0.331 0.14-0.143 0.222-0.325 0.245-0.545 0.018-0.219-0.036-0.475-0.162-0.77l-1-2.349 1.431-0.441 2.024 4.752-1.367 0.422-0.561-1.316 0.426 0.318c-0.042 0.373-0.192 0.695-0.449 0.968s-0.598 0.474-1.019 0.604z"></path>
<path fill="#c2c2c2" style="fill: var(--color2, #c2c2c2)" d="M46.054 24.522l-0.397 1.783-2.835 1.893-1.767-0.257 2.753-1.973 0.894-0.509 1.352-0.937zM47.488 23.665l-1.403 6.984-1.482-0.216 1.403-6.984 1.482 0.216zM43.678 23.111l1.302 2.379-1.16 1.003-1.937-3.643 1.796 0.261z"></path>
<path fill="#c2c2c2" style="fill: var(--color2, #c2c2c2)" d="M40.866 21.776c0.456 0.309 0.782 0.668 0.98 1.077 0.192 0.405 0.256 0.823 0.192 1.252-0.074 0.431-0.286 0.833-0.636 1.207-0.354 0.378-0.768 0.644-1.24 0.798-0.482 0.154-0.975 0.195-1.477 0.121-0.512-0.072-0.996-0.263-1.452-0.572-0.45-0.305-0.774-0.662-0.972-1.071-0.202-0.404-0.268-0.819-0.198-1.245s0.284-0.831 0.643-1.214c0.35-0.374 0.763-0.64 1.24-0.798 0.472-0.153 0.965-0.194 1.477-0.121s0.994 0.261 1.444 0.567zM40.026 22.673c-0.207-0.14-0.431-0.224-0.674-0.251s-0.484 0.004-0.724 0.093c-0.244 0.094-0.467 0.249-0.668 0.464-0.206 0.22-0.333 0.439-0.382 0.658s-0.031 0.426 0.055 0.621c0.086 0.195 0.232 0.363 0.438 0.503s0.431 0.224 0.674 0.251c0.243 0.027 0.487-0.002 0.732-0.088 0.24-0.090 0.462-0.244 0.668-0.464 0.201-0.215 0.328-0.434 0.382-0.658 0.044-0.222 0.023-0.431-0.063-0.627s-0.232-0.363-0.438-0.503z"></path>
</symbol>

<symbol id="icon-litvihenko" viewBox="0 0 71 32">
<path fill="#f36acb" style="fill: var(--color1, #f36acb)" d="M0.768 18.772v-6.048h0.883v2.736l2.544-2.736h1.094l-2.496 2.678 2.688 3.37h-1.114l-2.208-2.765-0.509 0.547v2.218h-0.883zM10.031 16.468c0 0.378-0.058 0.717-0.173 1.018-0.115 0.294-0.275 0.544-0.48 0.749-0.198 0.205-0.432 0.362-0.701 0.47-0.269 0.102-0.56 0.154-0.874 0.154s-0.605-0.048-0.874-0.144c-0.262-0.102-0.493-0.25-0.691-0.442-0.192-0.198-0.346-0.438-0.461-0.72-0.109-0.288-0.163-0.618-0.163-0.989 0-0.378 0.058-0.714 0.173-1.008s0.272-0.541 0.47-0.739c0.205-0.205 0.442-0.358 0.71-0.461 0.269-0.109 0.56-0.163 0.874-0.163s0.602 0.048 0.864 0.144c0.269 0.096 0.499 0.24 0.691 0.432 0.198 0.192 0.352 0.432 0.461 0.72 0.115 0.282 0.173 0.608 0.173 0.979zM9.148 16.516c0-0.301-0.038-0.557-0.115-0.768s-0.179-0.384-0.307-0.518c-0.122-0.134-0.262-0.23-0.422-0.288-0.16-0.064-0.323-0.096-0.49-0.096s-0.33 0.026-0.49 0.077c-0.16 0.051-0.301 0.141-0.422 0.269s-0.221 0.301-0.298 0.518c-0.070 0.211-0.106 0.48-0.106 0.806 0 0.301 0.038 0.56 0.115 0.778 0.077 0.211 0.176 0.384 0.298 0.518 0.128 0.134 0.272 0.234 0.432 0.298s0.323 0.096 0.49 0.096c0.166 0 0.33-0.026 0.49-0.077 0.16-0.058 0.301-0.15 0.422-0.278 0.122-0.134 0.218-0.307 0.288-0.518 0.077-0.218 0.115-0.49 0.115-0.816zM11.097 18.772v-6.816h0.826v6.816h-0.826zM13.406 18.772v-4.512h0.845v4.512h-0.845zM13.828 13.099c-0.147 0-0.275-0.048-0.384-0.144-0.102-0.102-0.154-0.227-0.154-0.374s0.051-0.272 0.154-0.374c0.109-0.102 0.237-0.154 0.384-0.154 0.141 0 0.266 0.051 0.374 0.154s0.163 0.227 0.163 0.374c0 0.147-0.054 0.272-0.163 0.374-0.109 0.096-0.234 0.144-0.374 0.144zM19.8 16.516c0 0.358-0.054 0.682-0.163 0.97s-0.256 0.534-0.442 0.739c-0.186 0.205-0.403 0.362-0.653 0.47s-0.515 0.163-0.797 0.163c-0.294 0-0.554-0.042-0.778-0.125-0.218-0.083-0.422-0.211-0.614-0.384h-0.019l-0.086 0.422h-0.605v-6.816h0.835v2.87c0.205-0.218 0.429-0.378 0.672-0.48 0.25-0.102 0.509-0.154 0.778-0.154 0.576 0 1.030 0.205 1.363 0.614 0.339 0.41 0.509 0.979 0.509 1.709zM18.917 16.526c0-0.499-0.106-0.896-0.317-1.19-0.211-0.301-0.509-0.451-0.893-0.451-0.243 0-0.464 0.054-0.662 0.163s-0.387 0.262-0.566 0.461v2.189c0.134 0.154 0.285 0.278 0.451 0.374 0.173 0.090 0.371 0.134 0.595 0.134 0.179 0 0.352-0.032 0.518-0.096 0.173-0.064 0.323-0.163 0.451-0.298 0.128-0.141 0.23-0.317 0.307-0.528s0.115-0.464 0.115-0.758zM20.799 18.772v-4.512h0.634l0.144 0.902c0.109-0.288 0.288-0.522 0.538-0.701s0.538-0.269 0.864-0.269c0.166 0 0.304 0.013 0.413 0.038s0.208 0.058 0.298 0.096l-0.163 0.739c-0.077-0.038-0.163-0.070-0.259-0.096-0.090-0.026-0.198-0.038-0.326-0.038-0.186 0-0.358 0.032-0.518 0.096-0.154 0.064-0.291 0.16-0.413 0.288-0.115 0.128-0.208 0.288-0.278 0.48-0.064 0.186-0.096 0.4-0.096 0.643v2.333h-0.835zM24.011 14.26h0.902l0.96 2.582 0.326 1.075h0.019l0.326-1.075 0.874-2.582h0.864l-1.738 4.896c-0.192 0.544-0.435 0.97-0.73 1.277-0.288 0.307-0.634 0.531-1.037 0.672l-0.365-0.672c0.301-0.115 0.566-0.282 0.797-0.499 0.237-0.218 0.419-0.518 0.547-0.902l0.086-0.259-1.834-4.512zM32.945 12.638c0.294 0 0.579 0.026 0.854 0.077 0.275 0.045 0.547 0.131 0.816 0.259l-0.211 0.73c-0.275-0.128-0.525-0.218-0.749-0.269-0.218-0.058-0.442-0.086-0.672-0.086-0.365 0-0.653 0.080-0.864 0.24s-0.317 0.384-0.317 0.672c0 0.243 0.077 0.438 0.23 0.586 0.16 0.147 0.419 0.275 0.778 0.384l0.605 0.192c0.55 0.173 0.938 0.41 1.162 0.71 0.23 0.294 0.346 0.627 0.346 0.998 0 0.262-0.054 0.502-0.163 0.72-0.102 0.211-0.25 0.394-0.442 0.547-0.186 0.147-0.406 0.262-0.662 0.346-0.256 0.077-0.538 0.115-0.845 0.115s-0.621-0.029-0.941-0.086c-0.314-0.051-0.627-0.15-0.941-0.298l0.211-0.72c0.275 0.134 0.544 0.234 0.806 0.298s0.538 0.096 0.826 0.096c0.346 0 0.64-0.080 0.883-0.24s0.365-0.397 0.365-0.71c0-0.115-0.019-0.221-0.058-0.317-0.032-0.102-0.093-0.198-0.182-0.288-0.083-0.090-0.198-0.173-0.346-0.25s-0.333-0.15-0.557-0.221l-0.605-0.192c-0.442-0.141-0.781-0.333-1.018-0.576s-0.355-0.573-0.355-0.989c0-0.531 0.173-0.95 0.518-1.258 0.352-0.314 0.861-0.47 1.526-0.47zM38.302 14.894h-1.325v2.621c0 0.224 0.054 0.374 0.163 0.451 0.115 0.077 0.262 0.115 0.442 0.115 0.128 0 0.269-0.013 0.422-0.038 0.154-0.032 0.288-0.067 0.403-0.106l0.134 0.643c-0.128 0.051-0.291 0.096-0.49 0.134s-0.406 0.058-0.624 0.058c-0.448 0-0.774-0.096-0.979-0.288-0.205-0.198-0.307-0.483-0.307-0.854v-2.736h-0.672v-0.634h0.672v-1.44h0.835v1.44h1.325v0.634zM42.452 14.26h0.845v4.512h-0.662l-0.115-0.566h-0.038c-0.166 0.186-0.374 0.342-0.624 0.47-0.243 0.122-0.528 0.182-0.854 0.182-0.467 0-0.848-0.131-1.143-0.394-0.288-0.269-0.432-0.672-0.432-1.21v-2.995h0.845v2.89c0 0.192 0.022 0.355 0.067 0.49 0.051 0.134 0.115 0.243 0.192 0.326 0.083 0.077 0.179 0.134 0.288 0.173 0.109 0.032 0.227 0.048 0.355 0.048 0.256 0 0.486-0.054 0.691-0.163s0.4-0.259 0.586-0.451v-3.312zM47.598 11.956h0.845v6.816h-0.71l-0.106-0.499h-0.029c-0.198 0.205-0.4 0.355-0.605 0.451-0.198 0.090-0.451 0.134-0.758 0.134-0.243 0-0.48-0.048-0.71-0.144-0.224-0.096-0.426-0.24-0.605-0.432s-0.323-0.432-0.432-0.72c-0.109-0.294-0.163-0.64-0.163-1.037 0-0.352 0.045-0.672 0.134-0.96 0.096-0.288 0.23-0.534 0.403-0.739s0.384-0.362 0.634-0.47c0.25-0.109 0.534-0.163 0.854-0.163 0.237 0 0.461 0.038 0.672 0.115 0.218 0.070 0.41 0.179 0.576 0.326v-2.678zM47.598 15.345c-0.301-0.339-0.656-0.509-1.066-0.509-0.173 0-0.342 0.032-0.509 0.096-0.16 0.058-0.304 0.154-0.432 0.288-0.122 0.134-0.221 0.307-0.298 0.518s-0.115 0.464-0.115 0.758c0 0.307 0.035 0.57 0.106 0.787 0.070 0.211 0.163 0.387 0.278 0.528 0.122 0.134 0.256 0.234 0.403 0.298 0.154 0.064 0.307 0.096 0.461 0.096 0.48 0 0.87-0.208 1.171-0.624v-2.237zM49.884 18.772v-4.512h0.845v4.512h-0.845zM50.306 13.099c-0.147 0-0.275-0.048-0.384-0.144-0.102-0.102-0.154-0.227-0.154-0.374s0.051-0.272 0.154-0.374c0.109-0.102 0.237-0.154 0.384-0.154 0.141 0 0.266 0.051 0.374 0.154s0.163 0.227 0.163 0.374c0 0.147-0.054 0.272-0.163 0.374-0.109 0.096-0.234 0.144-0.374 0.144zM56.25 16.468c0 0.378-0.058 0.717-0.173 1.018-0.115 0.294-0.275 0.544-0.48 0.749-0.198 0.205-0.432 0.362-0.701 0.47-0.269 0.102-0.56 0.154-0.874 0.154s-0.605-0.048-0.874-0.144c-0.262-0.102-0.493-0.25-0.691-0.442-0.192-0.198-0.346-0.438-0.461-0.72-0.109-0.288-0.163-0.618-0.163-0.989 0-0.378 0.058-0.714 0.173-1.008s0.272-0.541 0.47-0.739c0.205-0.205 0.442-0.358 0.71-0.461 0.269-0.109 0.56-0.163 0.874-0.163s0.602 0.048 0.864 0.144c0.269 0.096 0.499 0.24 0.691 0.432 0.198 0.192 0.352 0.432 0.461 0.72 0.115 0.282 0.173 0.608 0.173 0.979zM55.366 16.516c0-0.301-0.038-0.557-0.115-0.768s-0.179-0.384-0.307-0.518c-0.122-0.134-0.262-0.23-0.422-0.288-0.16-0.064-0.323-0.096-0.49-0.096s-0.33 0.026-0.49 0.077c-0.16 0.051-0.301 0.141-0.422 0.269s-0.221 0.301-0.298 0.518c-0.070 0.211-0.106 0.48-0.106 0.806 0 0.301 0.038 0.56 0.115 0.778 0.077 0.211 0.176 0.384 0.298 0.518 0.128 0.134 0.272 0.234 0.432 0.298s0.323 0.096 0.49 0.096c0.166 0 0.33-0.026 0.49-0.077 0.16-0.058 0.301-0.15 0.422-0.278 0.122-0.134 0.218-0.307 0.288-0.518 0.077-0.218 0.115-0.49 0.115-0.816z"></path>
<path fill="#c2c2c2" style="fill: var(--color2, #c2c2c2)" d="M44.233 10.43l-3.788-5.55 1.394-0.689 3.074 4.504 3.021-1.493 0.714 1.047-4.415 2.182z"></path>
<path fill="#c2c2c2" style="fill: var(--color2, #c2c2c2)" d="M48.142 8.686l-0.995-5.068 1.482-0.211 0.995 5.068-1.482 0.211zM47.749 2.806c-0.272 0.039-0.51-0.008-0.711-0.141s-0.326-0.315-0.372-0.548 0.002-0.439 0.142-0.621c0.14-0.181 0.347-0.291 0.619-0.33s0.509 0.005 0.71 0.131c0.2 0.12 0.322 0.296 0.368 0.529 0.048 0.245 0.003 0.461-0.136 0.649-0.134 0.18-0.34 0.29-0.619 0.33z"></path>
<path fill="#c2c2c2" style="fill: var(--color2, #c2c2c2)" d="M52.274 8.689c-0.604-0.068-1.052-0.272-1.342-0.614-0.289-0.348-0.387-0.825-0.293-1.432l0.693-4.478 1.488 0.167-0.69 4.459c-0.033 0.215-0.002 0.389 0.094 0.522 0.097 0.127 0.244 0.201 0.441 0.223 0.235 0.026 0.445-0.014 0.63-0.122l0.239 1.089c-0.169 0.090-0.366 0.152-0.591 0.185-0.218 0.027-0.441 0.028-0.67 0.002zM50.173 4.458l0.176-1.138 3.558 0.399-0.176 1.138-3.558-0.399z"></path>
<path fill="#c2c2c2" style="fill: var(--color2, #c2c2c2)" d="M54.279 9.195l1.047-5.207 1.376 0.704-0.956 4.453-0.684-0.35 4.23-2.779 1.282 0.656-4.919 3.228-1.376-0.704z"></path>
<path fill="#c2c2c2" style="fill: var(--color2, #c2c2c2)" d="M57.232 10.467l4.275-2.898 1.023 1.093-4.275 2.898-1.024-1.093zM62.615 7.712c-0.188-0.201-0.275-0.409-0.26-0.625s0.119-0.39 0.315-0.523 0.42-0.181 0.67-0.145c0.25 0.036 0.47 0.155 0.658 0.356s0.278 0.408 0.268 0.62c-0.004 0.209-0.104 0.38-0.3 0.512-0.207 0.14-0.438 0.194-0.694 0.161-0.246-0.032-0.466-0.15-0.658-0.356z"></path>
<path fill="#c2c2c2" style="fill: var(--color2, #c2c2c2)" d="M59.446 14.092c-0.196-0.521-0.263-1.015-0.2-1.481 0.069-0.468 0.254-0.872 0.555-1.211 0.304-0.334 0.702-0.568 1.196-0.703 0.5-0.136 0.984-0.143 1.453-0.020 0.477 0.128 0.9 0.365 1.27 0.714 0.376 0.347 0.661 0.781 0.858 1.302 0.192 0.509 0.247 0.983 0.167 1.421-0.074 0.436-0.281 0.8-0.621 1.091l-1.011-0.923c0.187-0.19 0.3-0.396 0.34-0.618 0.041-0.216 0.020-0.435-0.064-0.656-0.090-0.24-0.227-0.44-0.41-0.601s-0.398-0.271-0.645-0.329c-0.244-0.052-0.512-0.039-0.802 0.040s-0.517 0.2-0.68 0.364c-0.161 0.169-0.261 0.365-0.3 0.587s-0.013 0.453 0.077 0.692c0.084 0.222 0.213 0.411 0.388 0.568 0.183 0.161 0.419 0.272 0.707 0.332l-0.202 1.254c-0.469-0.070-0.886-0.264-1.25-0.581-0.358-0.318-0.633-0.732-0.825-1.241z"></path>
<path fill="#c2c2c2" style="fill: var(--color2, #c2c2c2)" d="M64.62 19.215c-0.091 0.399-0.255 0.741-0.49 1.026-0.23 0.292-0.534 0.501-0.91 0.626-0.37 0.127-0.813 0.147-1.331 0.061l-2.917-0.483 0.334-1.46 2.69 0.446c0.41 0.068 0.734 0.028 0.971-0.121 0.236-0.142 0.391-0.376 0.465-0.7 0.053-0.231 0.050-0.448-0.008-0.652-0.053-0.197-0.169-0.365-0.346-0.504-0.179-0.133-0.427-0.226-0.742-0.278l-2.519-0.417 0.334-1.46 7.027 1.164-0.334 1.46-3.343-0.554 0.501-0.257c0.3 0.237 0.502 0.54 0.608 0.907s0.11 0.766 0.011 1.197z"></path>
<path fill="#c2c2c2" style="fill: var(--color2, #c2c2c2)" d="M57.202 21.222c0.418-0.415 0.879-0.712 1.383-0.891 0.5-0.175 0.996-0.231 1.489-0.169 0.498 0.066 0.954 0.251 1.368 0.553 0.419 0.306 0.704 0.659 0.857 1.060 0.153 0.409 0.172 0.826 0.058 1.251-0.109 0.429-0.35 0.828-0.722 1.198-0.359 0.356-0.77 0.612-1.232 0.768-0.461 0.164-0.939 0.21-1.433 0.139-0.488-0.067-0.958-0.265-1.407-0.593-0.047-0.034-0.099-0.076-0.156-0.126-0.052-0.046-0.102-0.090-0.149-0.132l2.978-2.955 0.706 0.515-2.42 2.4 0.2-0.559c0.217 0.159 0.444 0.258 0.682 0.298s0.468 0.025 0.693-0.046c0.229-0.067 0.435-0.191 0.616-0.371s0.297-0.374 0.344-0.582c0.048-0.199 0.029-0.398-0.060-0.595-0.083-0.194-0.236-0.372-0.458-0.534l-0.186-0.136c-0.227-0.166-0.472-0.27-0.734-0.313-0.262-0.034-0.518-0.007-0.77 0.083-0.252 0.098-0.486 0.255-0.704 0.472-0.195 0.194-0.332 0.387-0.41 0.581-0.083 0.198-0.118 0.407-0.106 0.626l-1.264 0.052c-0.049-0.325-0.006-0.658 0.13-0.997 0.141-0.335 0.377-0.668 0.708-0.997z"></path>
<path fill="#c2c2c2" style="fill: var(--color2, #c2c2c2)" d="M55.132 28.048c-0.392 0.121-0.773 0.152-1.144 0.093-0.375-0.051-0.717-0.205-1.028-0.463-0.308-0.251-0.564-0.619-0.77-1.101l-1.158-2.72 1.431-0.441 1.068 2.508c0.163 0.383 0.372 0.638 0.627 0.766 0.249 0.13 0.532 0.146 0.85 0.047 0.226-0.070 0.411-0.18 0.554-0.331 0.14-0.143 0.222-0.325 0.245-0.545 0.018-0.219-0.036-0.475-0.162-0.77l-1-2.349 1.431-0.441 2.024 4.752-1.367 0.422-0.561-1.316 0.426 0.318c-0.042 0.373-0.192 0.695-0.449 0.968s-0.598 0.474-1.019 0.604z"></path>
<path fill="#c2c2c2" style="fill: var(--color2, #c2c2c2)" d="M50.054 24.522l-0.397 1.783-2.835 1.893-1.767-0.257 2.753-1.973 0.894-0.509 1.352-0.937zM51.488 23.665l-1.403 6.984-1.482-0.216 1.403-6.984 1.482 0.216zM47.678 23.111l1.302 2.379-1.16 1.003-1.937-3.643 1.796 0.261z"></path>
<path fill="#c2c2c2" style="fill: var(--color2, #c2c2c2)" d="M44.866 21.776c0.456 0.309 0.782 0.668 0.98 1.077 0.192 0.405 0.256 0.823 0.192 1.252-0.074 0.431-0.286 0.833-0.636 1.207-0.354 0.378-0.768 0.644-1.24 0.798-0.482 0.154-0.974 0.195-1.477 0.121-0.512-0.072-0.996-0.263-1.452-0.572-0.45-0.305-0.774-0.662-0.972-1.071-0.202-0.404-0.268-0.819-0.198-1.245s0.284-0.831 0.643-1.214c0.35-0.374 0.763-0.64 1.24-0.798 0.472-0.153 0.965-0.194 1.477-0.121s0.994 0.261 1.444 0.567zM44.026 22.673c-0.207-0.14-0.432-0.224-0.674-0.251s-0.484 0.004-0.724 0.093c-0.244 0.094-0.466 0.249-0.668 0.464-0.206 0.22-0.333 0.439-0.382 0.658s-0.031 0.426 0.055 0.621 0.232 0.363 0.438 0.503c0.207 0.14 0.432 0.224 0.674 0.251s0.487-0.002 0.732-0.088c0.24-0.090 0.462-0.244 0.668-0.464 0.201-0.215 0.328-0.434 0.382-0.658 0.044-0.222 0.023-0.431-0.063-0.627s-0.232-0.363-0.438-0.503z"></path>
</symbol>
	
<symbol id="icon-arrow-bottom" viewBox="0 0 58 32">
<path d="M25.44 28.64l-23.2-23.2c-0.32-0.32-0.559-0.666-0.717-1.037s-0.239-0.772-0.243-1.203c0-0.853 0.294-1.6 0.883-2.24s1.361-0.96 2.317-0.96h48.64c0.96 0 1.734 0.32 2.323 0.96s0.881 1.387 0.877 2.24c0 0.213-0.32 0.96-0.96 2.24l-23.2 23.2c-0.533 0.533-1.067 0.907-1.6 1.12s-1.12 0.32-1.76 0.32-1.227-0.107-1.76-0.32c-0.533-0.213-1.067-0.587-1.6-1.12z"></path>
</symbol>

<symbol id="icon-bx_map" viewBox="3 3 29 26">
<path d="M16.667 18.667c2.941 0 5.333-2.392 5.333-5.333s-2.392-5.333-5.333-5.333c-2.941 0-5.333 2.392-5.333 5.333s2.392 5.333 5.333 5.333zM16.667 10.667c1.471 0 2.667 1.196 2.667 2.667s-1.196 2.667-2.667 2.667c-1.471 0-2.667-1.196-2.667-2.667s1.196-2.667 2.667-2.667z"></path>
<path d="M15.893 29.085c0.226 0.161 0.496 0.247 0.773 0.247s0.548-0.086 0.773-0.247c0.405-0.287 9.932-7.165 9.893-15.752 0-5.881-4.785-10.667-10.667-10.667s-10.667 4.785-10.667 10.66c-0.039 8.593 9.488 15.472 9.893 15.759zM16.667 5.333c4.412 0 8 3.588 8 8.007 0.028 5.917-5.851 11.231-8 12.973-2.148-1.744-8.028-7.059-8-12.98 0-4.412 3.588-8 8-8z"></path>
</symbol>

<symbol id="icon-map-pin" viewBox="0 0 24 24">
<path d="M22 10c0-2.761-1.12-5.263-2.929-7.071s-4.31-2.929-7.071-2.929-5.263 1.12-7.071 2.929-2.929 4.31-2.929 7.071c0 0.569 0.053 1.128 0.15 1.676 0.274 1.548 0.899 3.004 1.682 4.32 2.732 4.591 7.613 7.836 7.613 7.836 0.331 0.217 0.765 0.229 1.109 0 0 0 4.882-3.245 7.613-7.836 0.783-1.316 1.408-2.772 1.682-4.32 0.098-0.548 0.151-1.107 0.151-1.676zM20 10c0 0.444-0.041 0.887-0.119 1.328-0.221 1.25-0.737 2.478-1.432 3.646-1.912 3.214-5.036 5.747-6.369 6.74-1.398-0.916-4.588-3.477-6.53-6.74-0.695-1.168-1.211-2.396-1.432-3.646-0.077-0.441-0.118-0.884-0.118-1.328 0-2.209 0.894-4.208 2.343-5.657s3.448-2.343 5.657-2.343 4.208 0.894 5.657 2.343 2.343 3.448 2.343 5.657zM16 10c0-1.104-0.449-2.106-1.172-2.828s-1.724-1.172-2.828-1.172-2.106 0.449-2.828 1.172-1.172 1.724-1.172 2.828 0.449 2.106 1.172 2.828 1.724 1.172 2.828 1.172 2.106-0.449 2.828-1.172 1.172-1.724 1.172-2.828zM14 10c0 0.553-0.223 1.051-0.586 1.414s-0.861 0.586-1.414 0.586-1.051-0.223-1.414-0.586-0.586-0.861-0.586-1.414 0.223-1.051 0.586-1.414 0.861-0.586 1.414-0.586 1.051 0.223 1.414 0.586 0.586 0.861 0.586 1.414z"></path>
</symbol>

<symbol id="icon-mail" viewBox="0 0 40 32">
<path d="M34 0h-28c-1.591 0-3.117 0.632-4.243 1.757s-1.757 2.651-1.757 4.243v20c0 1.591 0.632 3.117 1.757 4.243s2.651 1.757 4.243 1.757h28c1.591 0 3.117-0.632 4.243-1.757s1.757-2.651 1.757-4.243v-20c0-1.591-0.632-3.117-1.757-4.243s-2.651-1.757-4.243-1.757zM33.18 4l-11.76 11.76c-0.186 0.187-0.407 0.336-0.651 0.438s-0.505 0.154-0.769 0.154-0.525-0.052-0.769-0.154c-0.244-0.102-0.465-0.25-0.651-0.438l-11.76-11.76h26.36zM36 26c0 0.53-0.211 1.039-0.586 1.414s-0.884 0.586-1.414 0.586h-28c-0.53 0-1.039-0.211-1.414-0.586s-0.586-0.884-0.586-1.414v-19.18l11.76 11.76c1.125 1.124 2.65 1.755 4.24 1.755s3.115-0.631 4.24-1.755l11.76-11.76v19.18z"></path>
</symbol>

<symbol id="icon-tel" viewBox="0 0 32 32">
<path d="M30.058 21.652l-7.459-3.343c-0.386-0.165-0.807-0.231-1.226-0.193s-0.82 0.181-1.17 0.414c-0.041 0.027-0.081 0.057-0.119 0.088l-3.843 3.276c-2.435-1.183-4.948-3.677-6.131-6.081l3.281-3.902c0.032-0.039 0.062-0.079 0.090-0.122 0.228-0.348 0.366-0.748 0.403-1.163s-0.030-0.832-0.194-1.215v-0.019l-3.343-7.451c-0.217-0.5-0.589-0.917-1.062-1.188s-1.021-0.382-1.562-0.316c-2.14 0.282-4.103 1.332-5.525 2.956s-2.203 3.709-2.199 5.867c0 12.537 10.2 22.737 22.737 22.737 2.158 0.004 4.244-0.778 5.867-2.199s2.674-3.385 2.956-5.525c0.066-0.541-0.044-1.089-0.315-1.562s-0.687-0.846-1.187-1.063zM22.737 29.474c-5.358-0.006-10.496-2.137-14.285-5.926s-5.92-8.926-5.926-14.285c-0.006-1.542 0.55-3.033 1.563-4.195s2.415-1.916 3.943-2.12c-0.001 0.006-0.001 0.013 0 0.019l3.316 7.421-3.264 3.906c-0.033 0.038-0.063 0.079-0.090 0.122-0.238 0.365-0.377 0.784-0.405 1.219s0.057 0.868 0.247 1.26c1.431 2.926 4.378 5.852 7.336 7.28 0.395 0.188 0.831 0.27 1.267 0.238s0.856-0.176 1.22-0.418c0.041-0.027 0.080-0.057 0.117-0.088l3.838-3.275 7.421 3.324h0.017c-0.202 1.53-0.954 2.935-2.117 3.95s-2.655 1.573-4.199 1.568z"></path>
</symbol>

<symbol id="icon-oclock" viewBox="0 0 30 32">
<path d="M15.238 28.457c3.233 0 6.334-1.284 8.62-3.57s3.57-5.387 3.57-8.62c0-3.233-1.284-6.334-3.57-8.62s-5.387-3.571-8.62-3.571c-3.233 0-6.334 1.284-8.62 3.571s-3.571 5.387-3.571 8.62c0 3.233 1.284 6.334 3.571 8.62s5.387 3.57 8.62 3.57zM15.238 1.028c2.001 0 3.983 0.394 5.831 1.16s3.529 1.888 4.944 3.303 2.537 3.095 3.303 4.944c0.766 1.849 1.16 3.83 1.16 5.831 0 4.041-1.605 7.917-4.463 10.775s-6.734 4.463-10.775 4.463c-8.427 0-15.238-6.857-15.238-15.238 0-4.041 1.605-7.917 4.463-10.775s6.734-4.463 10.775-4.463zM16 8.647v8l6.857 4.069-1.143 1.874-8-4.8v-9.143h2.286z"></path>
</symbol>

<symbol id="icon-logos_facebook" viewBox="0 0 32 32">
<path fill="#1877f2" style="fill: #1877f2" d="M32 16c0-8.836-7.163-16-16-16s-16 7.163-16 16c0 7.986 5.851 14.605 13.5 15.806v-11.181h-4.063v-4.625h4.063v-3.525c0-4.010 2.389-6.225 6.044-6.225 1.75 0 3.581 0.313 3.581 0.313v3.938h-2.017c-1.988 0-2.608 1.233-2.608 2.499v3.001h4.438l-0.709 4.625h-3.728v11.181c7.649-1.2 13.5-7.819 13.5-15.806z"></path>
<path fill="#fff" style="fill: #fff" d="M22.228 20.625l0.709-4.625h-4.438v-3.001c0-1.265 0.62-2.499 2.608-2.499h2.017v-3.938c0 0-1.831-0.313-3.582-0.313-3.655 0-6.043 2.215-6.043 6.225v3.525h-4.063v4.625h4.063v11.181c0.827 0.13 1.663 0.195 2.5 0.194s1.673-0.065 2.5-0.194v-11.181h3.728z"></path>
</symbol>

<symbol id="icon-logos_telegram" viewBox="0 0 32 32">
<path fill="#2AABEE" style="fill: #2AABEE)" d="M16 0c-4.242 0-8.315 1.687-11.313 4.686-3.001 3.001-4.687 7.070-4.688 11.314 0 4.242 1.688 8.314 4.688 11.314 2.998 3 7.070 4.686 11.313 4.686s8.315-1.687 11.313-4.686c3-3 4.688-7.072 4.688-11.314s-1.688-8.314-4.688-11.314c-2.997-2.999-7.070-4.686-11.313-4.686z"></path>
<path fill="#fff" style="fill: #fff)" d="M7.242 15.831c4.665-2.032 7.775-3.372 9.33-4.019 4.445-1.848 5.367-2.169 5.97-2.18 0.133-0.002 0.427 0.031 0.62 0.186 0.16 0.131 0.205 0.309 0.227 0.433 0.020 0.124 0.047 0.408 0.025 0.63-0.24 2.53-1.282 8.669-1.813 11.503-0.223 1.199-0.665 1.601-1.093 1.64-0.93 0.085-1.635-0.614-2.535-1.204-1.407-0.923-2.203-1.498-3.57-2.398-1.58-1.041-0.555-1.613 0.345-2.548 0.235-0.245 4.33-3.969 4.408-4.306 0.010-0.042 0.020-0.2-0.075-0.283-0.093-0.083-0.23-0.055-0.33-0.032-0.142 0.032-2.39 1.519-6.75 4.461-0.637 0.439-1.215 0.652-1.735 0.641-0.57-0.012-1.67-0.323-2.487-0.588-1-0.326-1.798-0.498-1.728-1.051 0.035-0.288 0.433-0.583 1.19-0.884z"></path>
</symbol>

<symbol id="icon-kolibry_studio" viewBox="0 0 1 32">
<path fill="#d9d9d9" style="fill: #d9d9d9" d="M0.347 1.073l0.004-0.159 0.571-0.521h0.152l-0.404 0.386-0.070 0.059-0.253 0.234zM0.249 1.311v-1.297h0.124v1.297h-0.124zM0.96 1.311l-0.383-0.477 0.080-0.096 0.454 0.573h-0.152zM0.6 3.504c-0.089 0-0.168-0.020-0.239-0.059-0.070-0.041-0.125-0.096-0.166-0.166-0.041-0.071-0.061-0.152-0.061-0.243 0-0.092 0.020-0.173 0.061-0.243s0.096-0.125 0.166-0.164c0.070-0.040 0.15-0.059 0.239-0.059 0.091 0 0.171 0.020 0.241 0.059 0.071 0.040 0.126 0.094 0.166 0.164 0.041 0.070 0.061 0.151 0.061 0.243 0 0.091-0.020 0.172-0.061 0.243-0.040 0.070-0.095 0.125-0.166 0.166-0.071 0.040-0.151 0.059-0.241 0.059zM0.6 3.394c0.066 0 0.125-0.015 0.176-0.044 0.051-0.030 0.091-0.072 0.121-0.126 0.030-0.055 0.045-0.118 0.045-0.189 0-0.072-0.015-0.135-0.045-0.189-0.029-0.054-0.069-0.095-0.121-0.124-0.051-0.030-0.11-0.045-0.175-0.045s-0.123 0.015-0.175 0.045c-0.051 0.029-0.092 0.070-0.122 0.124s-0.045 0.116-0.045 0.189c0 0.071 0.015 0.134 0.045 0.189 0.030 0.054 0.071 0.096 0.122 0.126 0.051 0.029 0.109 0.044 0.173 0.044zM0.539 5.679v-1.297h0.124v1.297h-0.124zM0.539 7.863v-0.917h0.124v0.917h-0.124zM0.602 6.743c-0.026 0-0.047-0.009-0.065-0.026s-0.026-0.038-0.026-0.063c0-0.024 0.009-0.045 0.026-0.061 0.017-0.017 0.039-0.026 0.065-0.026s0.047 0.008 0.065 0.024c0.017 0.016 0.026 0.037 0.026 0.061 0 0.026-0.009 0.047-0.026 0.065-0.016 0.017-0.038 0.026-0.065 0.026zM0.655 10.057c-0.080 0-0.153-0.018-0.217-0.054-0.064-0.037-0.115-0.091-0.152-0.161s-0.056-0.154-0.056-0.253c0-0.1 0.019-0.185 0.056-0.253 0.038-0.070 0.090-0.123 0.154-0.159s0.136-0.054 0.215-0.054c0.087 0 0.165 0.020 0.234 0.059 0.070 0.038 0.125 0.093 0.164 0.162s0.059 0.151 0.059 0.245c0 0.092-0.020 0.174-0.059 0.245-0.040 0.070-0.094 0.125-0.164 0.164-0.069 0.040-0.147 0.059-0.234 0.059zM0.182 10.048v-1.297h0.124v0.65l-0.017 0.185 0.012 0.185v0.276h-0.119zM0.646 9.946c0.065 0 0.123-0.015 0.175-0.044 0.051-0.030 0.092-0.072 0.122-0.126 0.030-0.055 0.045-0.118 0.045-0.189 0-0.072-0.015-0.135-0.045-0.189s-0.071-0.095-0.122-0.124c-0.051-0.030-0.11-0.045-0.175-0.045s-0.124 0.015-0.176 0.045c-0.051 0.029-0.092 0.070-0.122 0.124-0.029 0.054-0.044 0.117-0.044 0.189 0 0.071 0.015 0.134 0.044 0.189 0.030 0.054 0.071 0.096 0.122 0.126 0.052 0.029 0.111 0.044 0.176 0.044zM0.423 12.232v-0.917h0.119v0.25l-0.012-0.044c0.026-0.070 0.069-0.123 0.129-0.159 0.061-0.037 0.136-0.056 0.225-0.056v0.121c-0.005 0-0.009 0-0.014 0-0.005-0.001-0.009-0.002-0.014-0.002-0.097 0-0.172 0.030-0.227 0.089-0.055 0.058-0.082 0.142-0.082 0.25v0.468h-0.124zM0.307 14.764c-0.043 0-0.084-0.007-0.124-0.021-0.038-0.014-0.072-0.035-0.1-0.063l0.058-0.093c0.023 0.022 0.048 0.039 0.075 0.051 0.028 0.013 0.059 0.019 0.093 0.019 0.041 0 0.076-0.012 0.105-0.035 0.030-0.022 0.059-0.062 0.086-0.119l0.059-0.135 0.014-0.019 0.377-0.851h0.122l-0.46 1.027c-0.026 0.059-0.054 0.107-0.086 0.142-0.030 0.035-0.064 0.059-0.1 0.073-0.036 0.015-0.076 0.023-0.121 0.023zM0.552 14.443l-0.423-0.944h0.129l0.374 0.842-0.080 0.101zM0.164 16.685v-0.084h0.874v0.084h-0.874zM0.593 18.794c-0.076 0-0.147-0.011-0.215-0.031-0.068-0.022-0.121-0.049-0.159-0.082l0.056-0.098c0.037 0.028 0.085 0.052 0.143 0.073 0.058 0.020 0.119 0.030 0.183 0.030 0.087 0 0.15-0.013 0.189-0.040 0.038-0.028 0.058-0.065 0.058-0.11 0-0.034-0.011-0.060-0.033-0.079-0.021-0.020-0.049-0.034-0.084-0.044-0.035-0.011-0.074-0.019-0.117-0.026s-0.086-0.015-0.129-0.024c-0.042-0.009-0.080-0.023-0.115-0.040-0.035-0.019-0.064-0.044-0.086-0.075-0.021-0.031-0.031-0.073-0.031-0.126 0-0.050 0.014-0.095 0.042-0.135s0.069-0.070 0.122-0.093c0.055-0.023 0.121-0.035 0.199-0.035 0.059 0 0.119 0.008 0.178 0.024 0.059 0.015 0.108 0.035 0.147 0.061l-0.054 0.1c-0.041-0.028-0.084-0.048-0.131-0.059-0.047-0.013-0.093-0.019-0.14-0.019-0.083 0-0.144 0.015-0.183 0.044-0.038 0.028-0.058 0.064-0.058 0.108 0 0.035 0.011 0.062 0.031 0.082 0.022 0.020 0.051 0.035 0.086 0.047 0.036 0.011 0.075 0.019 0.117 0.026 0.043 0.007 0.086 0.016 0.128 0.026 0.043 0.009 0.082 0.023 0.117 0.040 0.036 0.016 0.065 0.040 0.086 0.072 0.022 0.030 0.033 0.070 0.033 0.121 0 0.054-0.015 0.1-0.045 0.14-0.029 0.038-0.072 0.069-0.129 0.091-0.056 0.021-0.124 0.031-0.204 0.031zM0.709 20.978c-0.086 0-0.153-0.023-0.199-0.070s-0.070-0.112-0.070-0.197v-0.861h0.124v0.855c0 0.054 0.013 0.095 0.040 0.124 0.028 0.029 0.068 0.044 0.119 0.044 0.055 0 0.1-0.016 0.136-0.047l0.044 0.089c-0.024 0.022-0.054 0.038-0.089 0.049-0.034 0.011-0.069 0.016-0.105 0.016zM0.275 20.155v-0.103h0.568v0.103h-0.568zM0.566 23.162c-0.078 0-0.146-0.015-0.204-0.044s-0.104-0.073-0.136-0.131c-0.031-0.058-0.047-0.131-0.047-0.218v-0.533h0.124v0.519c0 0.098 0.024 0.172 0.072 0.222 0.049 0.049 0.117 0.073 0.204 0.073 0.064 0 0.119-0.013 0.166-0.038 0.048-0.027 0.084-0.065 0.108-0.115 0.026-0.050 0.038-0.11 0.038-0.18v-0.481h0.124v0.917h-0.119v-0.252l0.019 0.045c-0.029 0.068-0.075 0.121-0.136 0.159-0.061 0.037-0.132 0.056-0.213 0.056zM0.547 25.347c-0.087 0-0.166-0.020-0.236-0.059-0.069-0.040-0.123-0.094-0.163-0.164-0.040-0.071-0.059-0.153-0.059-0.245 0-0.093 0.020-0.175 0.059-0.245s0.094-0.124 0.163-0.163c0.070-0.040 0.149-0.059 0.236-0.059 0.080 0 0.152 0.018 0.215 0.054 0.064 0.036 0.115 0.089 0.152 0.159 0.038 0.069 0.058 0.153 0.058 0.253 0 0.099-0.019 0.183-0.056 0.253s-0.088 0.124-0.152 0.161c-0.063 0.036-0.135 0.054-0.217 0.054zM0.555 25.237c0.065 0 0.123-0.015 0.175-0.044 0.052-0.030 0.093-0.072 0.122-0.126 0.030-0.055 0.045-0.118 0.045-0.189 0-0.072-0.015-0.135-0.045-0.189-0.029-0.054-0.070-0.095-0.122-0.124-0.051-0.030-0.11-0.045-0.175-0.045-0.064 0-0.122 0.015-0.173 0.045-0.051 0.029-0.092 0.070-0.122 0.124s-0.045 0.117-0.045 0.189c0 0.071 0.015 0.134 0.045 0.189 0.030 0.054 0.071 0.096 0.122 0.126 0.051 0.029 0.109 0.044 0.173 0.044zM0.901 25.338v-0.276l0.012-0.185-0.017-0.185v-0.65h0.124v1.297h-0.119zM0.539 27.522v-0.917h0.124v0.917h-0.124zM0.602 26.402c-0.026 0-0.047-0.009-0.065-0.026s-0.026-0.038-0.026-0.063c0-0.024 0.009-0.045 0.026-0.061 0.017-0.017 0.039-0.026 0.065-0.026s0.047 0.008 0.065 0.024c0.017 0.016 0.026 0.037 0.026 0.061 0 0.026-0.009 0.047-0.026 0.065-0.016 0.017-0.038 0.026-0.065 0.026zM0.6 29.715c-0.089 0-0.168-0.020-0.239-0.059-0.070-0.041-0.125-0.096-0.166-0.166-0.041-0.071-0.061-0.152-0.061-0.243 0-0.092 0.020-0.173 0.061-0.243s0.096-0.125 0.166-0.164c0.070-0.040 0.15-0.059 0.239-0.059 0.091 0 0.171 0.020 0.241 0.059 0.071 0.040 0.126 0.094 0.166 0.164 0.041 0.070 0.061 0.151 0.061 0.243 0 0.091-0.020 0.172-0.061 0.243-0.040 0.070-0.095 0.125-0.166 0.166-0.071 0.040-0.151 0.059-0.241 0.059zM0.6 29.605c0.066 0 0.125-0.015 0.176-0.044 0.051-0.030 0.091-0.072 0.121-0.126 0.030-0.055 0.045-0.118 0.045-0.189 0-0.072-0.015-0.135-0.045-0.189-0.029-0.054-0.069-0.095-0.121-0.124-0.051-0.030-0.11-0.045-0.175-0.045s-0.123 0.015-0.175 0.045c-0.051 0.029-0.092 0.070-0.122 0.124s-0.045 0.117-0.045 0.189c0 0.071 0.015 0.134 0.045 0.189 0.030 0.054 0.071 0.096 0.122 0.126 0.051 0.029 0.109 0.044 0.173 0.044zM0.6 31.9c-0.089 0-0.168-0.020-0.239-0.059-0.070-0.041-0.125-0.096-0.166-0.166-0.041-0.071-0.061-0.152-0.061-0.243 0-0.092 0.020-0.173 0.061-0.243s0.096-0.125 0.166-0.164c0.070-0.040 0.15-0.059 0.239-0.059 0.091 0 0.171 0.020 0.241 0.059 0.071 0.040 0.126 0.094 0.166 0.164 0.041 0.070 0.061 0.151 0.061 0.243 0 0.091-0.020 0.172-0.061 0.243-0.040 0.070-0.095 0.125-0.166 0.166-0.071 0.040-0.151 0.059-0.241 0.059zM0.6 31.789c0.066 0 0.125-0.015 0.176-0.044 0.051-0.030 0.091-0.072 0.121-0.126 0.030-0.055 0.045-0.118 0.045-0.189 0-0.072-0.015-0.135-0.045-0.189-0.029-0.054-0.069-0.095-0.121-0.124-0.051-0.030-0.11-0.045-0.175-0.045s-0.123 0.015-0.175 0.045c-0.051 0.029-0.092 0.070-0.122 0.124s-0.045 0.117-0.045 0.189c0 0.071 0.015 0.134 0.045 0.189 0.030 0.054 0.071 0.096 0.122 0.126 0.051 0.029 0.109 0.044 0.173 0.044z"></path>
</symbol>

<symbol id="icon-arrow_bottom" viewBox="0 0 55 32">
<path d="M54.714 4.364l-27.078 27.078-27.078-27.078 3.095-3.095 23.983 23.985 23.983-23.983 3.095 3.092z"></path>
</symbol>





</defs>
</svg>